<?xml version="1.0" encoding="UTF-8"?>
<svg id="a" data-name="Calque 1" xmlns="http://www.w3.org/2000/svg" viewBox="0 0 133.31 133.44">
  <defs>
    <style>
      .b {
        fill: #ffc50f;
      }

      .c {
        fill: #fff;
        opacity: .5;
      }

      .d {
        fill: #400101;
      }
    </style>
  </defs>
  <g>
    <polygon class="b" points="9.49 129.52 2.08 119.05 3.1 10.29 12.29 3.9 122.08 3.9 128.98 9.77 129.49 123.14 121.32 130.03 9.49 129.52"/>
    <polygon class="c" points="15.82 7.09 15.82 117.18 126.67 117.18 126.67 126.33 13.82 126.33 13.7 126.33 6.68 126.33 6.68 7.09 15.82 7.09"/>
    <rect class="d" y="7.09" width="7.14" height="119.23"/>
    <rect class="d" x="126.17" y="7.09" width="7.14" height="119.23"/>
    <rect class="d" x="7.01" width="119.29" height="7.14"/>
    <rect class="d" x="7.01" y="126.3" width="119.29" height="7.14"/>
  </g>
  <g>
    <rect class="d" x="15.93" y="15.21" width="21.79" height="21.79"/>
    <rect class="d" x="54.06" y="55.89" width="21.79" height="21.79"/>
    <rect class="d" x="95.32" y="95.36" width="21.79" height="21.79"/>
  </g>
</svg>