<?xml version="1.0" encoding="utf-8"?>
<!-- Generator: Adobe Illustrator 28.1.0, SVG Export Plug-In . SVG Version: 6.00 Build 0)  -->
<svg version="1.1" id="a" xmlns="http://www.w3.org/2000/svg" xmlns:xlink="http://www.w3.org/1999/xlink" x="0px" y="0px"
	 viewBox="0 0 1265.8 153.3" style="enable-background:new 0 0 1265.8 153.3;" xml:space="preserve">
<style type="text/css">
	.st0{fill:#FFC50F;}
	.st1{fill:#F25430;}
	.st2{opacity:0.3;fill:#FFFFFF;enable-background:new    ;}
	.st3{fill:#400101;}
	.st4{opacity:0.7;fill:#FFFFFF;enable-background:new    ;}
</style>
<polygon class="st0" points="843.9,104.9 860.5,105.9 868.7,111 886,114.9 951.1,116.4 964.9,111.8 980.2,109 994.5,103.9 
	1010.4,99.3 1063.7,102.7 1079.5,112.2 1095.9,115.4 1119,122.5 1137.9,127.8 1160.2,132.6 1176.9,142.4 1196,146.3 1011.6,148.3 
	1000.1,147 972.1,148.8 963.6,143.5 937.1,148.8 929.7,144.5 904.4,148.8 897,144 874.8,147.8 871.8,143.9 851.8,143.7 850.5,121.5 
	"/>
<g>
	<g>
		<polygon class="st1" points="1111.4,29.2 1114.9,23.6 1166.9,2.1 1171.8,5.2 1194,57.5 1192.6,62 1138.7,85.1 1133.8,82.6 		"/>
		<polygon class="st2" points="1171,7.5 1118.6,29.8 1141,82.6 1136.6,84.4 1113.8,30.7 1113.8,30.6 1112.4,27.2 1169.2,3.2 		"/>
		
			<rect x="1109.3" y="11.9" transform="matrix(0.9207 -0.3902 0.3902 0.9207 85.037 446.0304)" class="st3" width="61.7" height="3.7"/>
		
			<rect x="1134.8" y="72" transform="matrix(0.9207 -0.3902 0.3902 0.9207 63.601 460.7375)" class="st3" width="61.7" height="3.7"/>
		
			<rect x="1181.1" y="0.2" transform="matrix(0.9207 -0.3902 0.3902 0.9207 81.6816 464.1104)" class="st3" width="3.7" height="61.7"/>
		
			<rect x="1121" y="25.7" transform="matrix(0.9207 -0.3902 0.3902 0.9207 66.962 442.6551)" class="st3" width="3.7" height="61.7"/>
	</g>
	<g>
		
			<rect x="1158.5" y="11" transform="matrix(0.9207 -0.3902 0.3902 0.9207 85.8209 455.6328)" class="st3" width="11.3" height="11.3"/>
		
			<rect x="1146.9" y="37.4" transform="matrix(0.9207 -0.3902 0.3902 0.9207 74.6053 453.1664)" class="st3" width="11.3" height="11.3"/>
		
			<rect x="1136.4" y="65" transform="matrix(0.9207 -0.3902 0.3902 0.9207 62.9972 451.2721)" class="st3" width="11.3" height="11.3"/>
	</g>
</g>
<rect x="1050.6" y="29.8" class="st3" width="20.2" height="5.4"/>
<rect x="907.7" y="41.6" class="st3" width="7.1" height="20.2"/>
<rect x="914.3" y="56.1" class="st3" width="7.1" height="20.2"/>
<rect x="921.3" y="73.6" class="st3" width="7.1" height="20.2"/>
<rect x="940.7" y="33.9" class="st3" width="7.1" height="20.2"/>
<rect x="947.3" y="48.3" class="st3" width="7.1" height="20.2"/>
<rect x="1062.5" y="24.8" class="st3" width="14.1" height="5.4"/>
<rect x="1080.6" y="61.1" class="st3" width="16.2" height="5.5"/>
<rect x="1040.3" y="75.4" class="st3" width="7.8" height="5.5"/>
<g>
	<rect x="848.5" y="102.4" class="st3" width="16" height="7.1"/>
	<rect x="864.1" y="107.7" class="st3" width="16" height="7.1"/>
	<rect x="956.7" y="107.7" class="st3" width="16" height="7.1"/>
	<rect x="972.6" y="104.1" class="st3" width="16" height="7.1"/>
	<rect x="987.6" y="100.6" class="st3" width="16" height="7.1"/>
	<rect x="1074.9" y="101.4" class="st3" width="37.6" height="7.1"/>
	<rect x="1112.2" y="106" class="st3" width="26.5" height="7.1"/>
	<rect x="1138.4" y="111.3" class="st3" width="26.5" height="7.1"/>
	<rect x="1165" y="116.4" class="st3" width="17.2" height="7.1"/>
	<rect x="1182.1" y="122" class="st3" width="23.9" height="7.1"/>
	<rect x="1205.8" y="126.1" class="st3" width="17.2" height="7.1"/>
	<rect x="1222.7" y="131.2" class="st3" width="24.8" height="7.1"/>
	<rect x="1242.1" y="138.1" class="st3" width="14.5" height="7.1"/>
	<rect x="1251.3" y="145" class="st3" width="14.5" height="7.1"/>
	<rect x="1130.2" y="124.8" class="st0" width="25.3" height="7.1"/>
	<rect x="1110.8" y="118.9" class="st0" width="20.2" height="7.1"/>
	<rect x="1094" y="113.1" class="st0" width="16.8" height="7.1"/>
	<rect x="1077.4" y="110" class="st0" width="16.6" height="7.1"/>
	<rect x="1061.7" y="103.1" class="st0" width="8.4" height="5.4"/>
	<rect x="1069.2" y="107.7" class="st0" width="8.4" height="5.4"/>
	<rect x="1154.7" y="130.2" class="st0" width="13.5" height="7.1"/>
	<rect x="1168.1" y="136.4" class="st0" width="13.5" height="7.1"/>
	<rect x="1181.6" y="142.7" class="st0" width="13.5" height="7.1"/>
	<rect x="1010.4" y="145" class="st3" width="240.9" height="7.1"/>
	<rect x="1003.5" y="96.7" class="st3" width="71.8" height="7.1"/>
	<rect x="879.9" y="112.2" class="st3" width="77.1" height="7.1"/>
</g>
<g>
	<rect x="841.8" y="55.7" transform="matrix(0.9939 -0.1101 0.1101 0.9939 -2.5897 93.4876)" class="st3" width="7.1" height="29"/>
	
		<rect x="841.9" y="76.8" transform="matrix(0.9939 -0.1101 0.1101 0.9939 -5.8873 93.6782)" class="st3" width="7.1" height="46.7"/>
	
		<rect x="848.3" y="114.4" transform="matrix(0.9939 -0.1101 0.1101 0.9939 -9.0117 94.5601)" class="st3" width="7.1" height="29"/>
	<g>
		
			<rect x="840" y="50.1" transform="matrix(0.9939 -0.1101 0.1101 0.9939 -0.7287 94.1637)" class="st3" width="24.8" height="7.1"/>
		<rect x="861.1" y="43" transform="matrix(0.9939 -0.1101 0.1101 0.9939 0.2015 96.8264)" class="st3" width="31.8" height="7.1"/>
		
			<rect x="889.1" y="35.6" transform="matrix(0.9939 -0.1101 0.1101 0.9939 1.1933 100.0348)" class="st3" width="35" height="7.1"/>
		<rect x="920" y="28.6" transform="matrix(0.9939 -0.1101 0.1101 0.9939 2.1547 103.399)" class="st3" width="35" height="7.1"/>
		
			<rect x="951.1" y="20.4" transform="matrix(0.9939 -0.1101 0.1101 0.9939 3.2577 106.9258)" class="st3" width="37.8" height="7.1"/>
		
			<rect x="985.2" y="12.5" transform="matrix(0.9939 -0.1101 0.1101 0.9939 4.3323 110.6268)" class="st3" width="37.8" height="7.1"/>
	</g>
	<g>
		
			<rect x="850.1" y="140.6" transform="matrix(0.9939 -0.1101 0.1101 0.9939 -10.6266 95.8163)" class="st3" width="24.8" height="7.1"/>
		
			<rect x="872.1" y="142.1" transform="matrix(0.9939 -0.1101 0.1101 0.9939 -10.6409 98.6365)" class="st3" width="31.8" height="7.1"/>
		
			<rect x="901" y="142.9" transform="matrix(0.9939 -0.1101 0.1101 0.9939 -10.5365 101.9942)" class="st3" width="35" height="7.1"/>
		
			<rect x="932.7" y="142.9" transform="matrix(0.9939 -0.1101 0.1101 0.9939 -10.353 105.4882)" class="st3" width="35" height="7.1"/>
		
			<rect x="964.8" y="143.9" transform="matrix(0.9939 -0.1101 0.1101 0.9939 -10.2504 109.1807)" class="st3" width="37.8" height="7.1"/>
		
			<rect x="999.7" y="144.1" transform="matrix(0.9939 -0.1101 0.1101 0.9939 -10.0644 113.0311)" class="st3" width="37.8" height="7.1"/>
	</g>
	
		<rect x="1023.7" y="10" transform="matrix(0.9939 -0.1101 0.1101 0.9939 2.8566 113.2744)" class="st3" width="7.1" height="41.5"/>
	
		<rect x="1031.9" y="103.2" transform="matrix(0.9939 -0.1101 0.1101 0.9939 -6.6987 114.6981)" class="st3" width="7.1" height="29.6"/>
	
		<rect x="1035.9" y="119.2" transform="matrix(0.9939 -0.1101 0.1101 0.9939 -8.4334 115.2448)" class="st3" width="7.1" height="29.6"/>
	
		<rect x="1024.5" y="47.8" transform="matrix(0.9939 -0.1101 0.1101 0.9939 -2.2742 113.6461)" class="st3" width="7.1" height="59.3"/>
</g>
<rect x="874.4" y="125.9" class="st4" width="5.1" height="5.1"/>
<rect x="990.8" y="118.5" class="st4" width="7.7" height="7.7"/>
<rect x="1016.8" y="130.5" class="st4" width="4.3" height="4.3"/>
<rect x="1091.5" y="134.6" class="st4" width="5.9" height="5.9"/>
<rect x="1193.7" y="132.1" class="st0" width="4.3" height="4.3"/>
<rect x="1210.9" y="136.2" class="st0" width="5.9" height="5.9"/>
<rect x="921" y="123.7" class="st4" width="5.9" height="5.9"/>
<rect x="954" y="126.9" class="st4" width="4.1" height="4.1"/>
<rect x="893.1" y="125.6" class="st4" width="3.2" height="3.2"/>
<rect x="859.9" y="133" class="st4" width="3.2" height="3.2"/>
<rect x="1060.2" y="116.2" class="st4" width="7.7" height="7.7"/>
<rect x="972.9" y="135.1" class="st4" width="2.8" height="2.8"/>
<rect x="862.1" y="118.2" class="st4" width="2.8" height="2.8"/>
<rect x="911.2" y="134.9" class="st4" width="2.8" height="2.8"/>
<g>
	<path class="st3" d="M42.8,62.7H16.4V49.5h66.1v13.2H56V142H42.8V62.7z"/>
	<path class="st3" d="M115.5,102.3h-6.6V142H95.7V49.5h52.9v6.6h6.6v6.6h6.6v26.4h-6.6v6.6h-6.6v6.6h-13.2v6.6h6.6v6.6h6.6v6.6h6.6
		v6.6h6.6V142h-13.2v-6.6h-6.6v-6.6h-6.6v-6.6h-6.6v-6.6h-6.6v-6.6h-6.6V102.3z M108.9,62.7v26.4h33v-6.6h6.6V69.3h-6.6v-6.6H108.9z
		"/>
	<path class="st3" d="M188.2,142H175V75.9h6.6v-6.6h6.6v-6.6h6.6v-6.6h6.6v-6.6h13.2v6.6h6.6v6.6h6.6v6.6h6.6v6.6h6.6V142h-13.2
		v-26.4h-39.6V142z M188.2,102.3h39.6V82.5h-6.6v-6.6h-6.6v-6.6h-13.2v6.6h-6.6v6.6h-6.6V102.3z"/>
	<path class="st3" d="M260.9,128.7h-6.6V62.7h6.6v-6.6h6.6v-6.6h39.6v6.6h6.6v6.6h6.6v59.5h-6.6v6.6h6.6V142h-13.2v-6.6h-13.2v6.6
		h-26.4v-6.6h-6.6V128.7z M267.5,69.3v52.9h6.6v6.6h19.8v-6.6h-6.6v-6.6h-6.6v-13.2h13.2v6.6h6.6v6.6h6.6V69.3h-6.6v-6.6h-26.4v6.6
		H267.5z"/>
	<path class="st3" d="M340.2,128.7h-6.6V49.5h13.2v72.7h6.6v6.6h26.4v-6.6h6.6V49.5h13.2v79.3H393v6.6h-6.6v6.6h-39.6v-6.6h-6.6
		V128.7z"/>
	<path class="st3" d="M478.9,49.5v13.2h-52.9v26.4h39.6v13.2h-39.6v26.4h52.9V142h-66.1V49.5H478.9z"/>
	<path class="st3" d="M505.4,89.1V142h-13.2V49.5h13.2v19.8h6.6v6.6h6.6v6.6h6.6v6.6h6.6v6.6h6.6v6.6h6.6V49.5h13.2V142H545v-19.8
		h-6.6v-6.6h-6.6v-6.6h-6.6v-6.6h-6.6v-6.6H512v-6.6H505.4z"/>
	<path class="st3" d="M584.7,142h-13.2V75.9h6.6v-6.6h6.6v-6.6h6.6v-6.6h6.6v-6.6h13.2v6.6h6.6v6.6h6.6v6.6h6.6v6.6h6.6V142h-13.2
		v-26.4h-39.6V142z M584.7,102.3h39.6V82.5h-6.6v-6.6h-6.6v-6.6h-13.2v6.6h-6.6v6.6h-6.6V102.3z"/>
	<path class="st3" d="M670.6,102.3h-6.6V142h-13.2V49.5h52.9v6.6h6.6v6.6h6.6v26.4h-6.6v6.6h-6.6v6.6h-13.2v6.6h6.6v6.6h6.6v6.6h6.6
		v6.6h6.6V142h-13.2v-6.6H697v-6.6h-6.6v-6.6h-6.6v-6.6h-6.6v-6.6h-6.6V102.3z M663.9,62.7v26.4h33v-6.6h6.6V69.3H697v-6.6H663.9z"
		/>
	<path class="st3" d="M730,142V49.5h52.9v6.6h6.6v6.6h6.6v66.1h-6.6v6.6h-6.6v6.6H730z M743.2,62.7v66.1h33v-6.6h6.6V69.3h-6.6v-6.6
		H743.2z"/>
</g>
</svg>
