<?xml version="1.0" encoding="utf-8"?>
<!-- Generator: Adobe Illustrator 28.1.0, SVG Export Plug-In . SVG Version: 6.00 Build 0)  -->
<svg version="1.1" id="a" xmlns="http://www.w3.org/2000/svg" xmlns:xlink="http://www.w3.org/1999/xlink" x="0px" y="0px"
	 viewBox="0 0 1265.8 153.3" style="enable-background:new 0 0 1265.8 153.3;" xml:space="preserve">
<style type="text/css">
	.st0{opacity:0.4;fill:#400101;}
	.st1{opacity:0.2;fill:#400101;}
	.st2{fill:#2D0202;}
	.st3{fill:#FFC50F;}
	.st4{fill:#F25430;}
	.st5{opacity:0.3;fill:#FFFFFF;enable-background:new    ;}
	.st6{fill:#400101;}
	.st7{opacity:0.5;fill:#400101;}
	.st8{fill:#E2E2E2;}
	.st9{fill:#FFFFFF;}
	.st10{opacity:0.7;fill:#FFFFFF;enable-background:new    ;}
</style>
<rect x="843" y="55.1" transform="matrix(0.9939 -0.1101 0.1101 0.9939 -2.4312 93.5846)" class="st0" width="6.8" height="27.5"/>
<rect x="843.1" y="75.1" transform="matrix(0.9939 -0.1101 0.1101 0.9939 -5.6304 93.7885)" class="st0" width="7" height="45.6"/>
<g>
	<path class="st1" d="M979.5,34.8l43.6-5.9l-0.7-6.7l-2.9,0.3l-0.7-6.2l-46.5,6.2l0.4,3.8l-32.7,3.6l0.5,4.3l-30,3.3l0.4,3.4
		l-29.7,3.3l0.4,3.8l-26.9,3l0.5,4.1l-6.8,0.7l-0.2-1.5l-6.7,0.7l0.2,1.4l-4.6,0.5l0.7,6.7l2.9-0.3l0.7,6.2l1.7-0.2l1.4,12.9
		l2.9-0.3l0.7,6.2l2-0.2l3.6,32.4l2.9-0.3l0.7,6.2l6.9-0.8l-5-45.3l-2.9,0.3l-0.7-6.2l-2.2,0.2l-0.7-6.2l9.7-1l-0.5-4.1l27.1-3
		l-0.4-3.8l30-3.3l-0.4-3.4l29.7-3.3l-0.5-4.3l32.6-3.6L979.5,34.8z M976.2,32.2L976.2,32.2l-0.4-3.3l0,0L976.2,32.2z M858.6,61.1
		L858.6,61.1l-0.4-3.6l0,0L858.6,61.1z"/>
	<g>
		
			<rect x="1018.8" y="10.9" transform="matrix(0.9939 -0.1101 0.1101 0.9939 2.8537 112.7135)" class="st2" width="6.8" height="39.3"/>
		<polygon class="st2" points="1027.2,104.9 1033.9,104.1 1038.3,141.9 1031.6,142.7 		"/>
		
			<rect x="1029" y="48.7" transform="matrix(0.9939 -0.1101 0.1101 0.9939 -2.1801 114.1156)" class="st2" width="6.8" height="56.2"/>
	</g>
	<path class="st3" d="M838.5,74.8c0,0,10.1,21.8,46,32.2c37.3,10.8,145,22.1,195.5,26.2c50.6,4.1,150.6,8.5,150.6,8.5l-250.8-1.4
		l-131.2-2.6L838.5,74.8z"/>
	<g>
		<g>
			<polygon class="st4" points="1092.5,39.3 1095.8,34 1145.1,13.6 1149.7,16.6 1170.8,66.1 1169.4,70.4 1118.3,92.3 1113.7,89.9 
							"/>
			<polygon class="st5" points="1149,18.8 1099.3,39.8 1120.5,89.9 1116.4,91.7 1094.7,40.7 1094.7,40.6 1093.4,37.5 1147.2,14.6 
							"/>
			
				<rect x="1090.5" y="22.9" transform="matrix(0.9207 -0.3902 0.3902 0.9207 79.1615 438.9216)" class="st6" width="58.5" height="3.5"/>
			
				<rect x="1114.6" y="79.9" transform="matrix(0.9207 -0.3902 0.3902 0.9207 58.836 452.8669)" class="st6" width="58.5" height="3.5"/>
			
				<rect x="1158.6" y="11.8" transform="matrix(0.9207 -0.3902 0.3902 0.9207 75.9799 456.065)" class="st6" width="3.5" height="58.5"/>
			
				<rect x="1101.5" y="36" transform="matrix(0.9207 -0.3902 0.3902 0.9207 62.0229 435.7212)" class="st6" width="3.5" height="58.5"/>
		</g>
		<g>
			
				<rect x="1137.1" y="22" transform="matrix(0.9207 -0.3902 0.3902 0.9207 79.9048 448.0266)" class="st6" width="10.7" height="10.7"/>
			
				<rect x="1126.1" y="47" transform="matrix(0.9207 -0.3902 0.3902 0.9207 69.2702 445.688)" class="st6" width="10.7" height="10.7"/>
			
				<rect x="1116.2" y="73.2" transform="matrix(0.9207 -0.3902 0.3902 0.9207 58.2635 443.8918)" class="st6" width="10.7" height="10.7"/>
		</g>
	</g>
	<rect x="1049.9" y="39.7" class="st6" width="19.1" height="5.1"/>
	<polygon class="st7" points="912,72 912,55.4 905.7,55.4 905.7,41.7 899,41.7 899,60.8 905.3,60.8 905.3,74.5 911.9,74.5 
		911.9,91.2 918.6,91.2 918.6,72 	"/>
	<polygon class="st7" points="937,48.1 937,34.4 930.3,34.4 930.3,53.5 936.6,53.5 936.6,67.2 943.3,67.2 943.3,48.1 	"/>
	<rect x="1061.1" y="34.9" class="st6" width="13.3" height="5.1"/>
	<rect x="1074.5" y="64.3" class="st6" width="15.4" height="5.2"/>
	<rect x="1063.8" y="80.3" class="st6" width="7.4" height="5.2"/>
	<rect x="839" y="81.9" class="st3" width="9.6" height="6.8"/>
	<rect x="848.5" y="87.8" class="st3" width="9.6" height="6.8"/>
	<rect x="857" y="94.6" class="st3" width="9.6" height="6.8"/>
	<rect x="866.6" y="99.8" class="st3" width="9.6" height="6.8"/>
	<rect x="876.2" y="103.2" class="st3" width="9.6" height="6.8"/>
	<rect x="885.8" y="106.6" class="st3" width="15.4" height="6.8"/>
	<rect x="901" y="110" class="st3" width="24.5" height="6.8"/>
	<rect x="925.5" y="114.2" class="st3" width="24.5" height="6.8"/>
	<rect x="949.9" y="117.7" class="st3" width="24.5" height="6.8"/>
	<rect x="974.4" y="120.9" class="st3" width="24.5" height="6.8"/>
	<rect x="999" y="124.3" class="st3" width="44.1" height="6.8"/>
	<rect x="1043" y="128.3" class="st3" width="44.1" height="6.8"/>
	<rect x="1086.2" y="131.6" class="st3" width="44.1" height="6.8"/>
	<rect x="1086.2" y="136" class="st3" width="44.1" height="6.8"/>
	<rect x="1042.1" y="136" class="st3" width="44.1" height="6.8"/>
	<rect x="1023.8" y="136" class="st3" width="20.6" height="6.8"/>
	<rect x="1130.3" y="135" class="st3" width="100.4" height="6.8"/>
	<g>
		<rect x="839" y="75.7" class="st8" width="9.6" height="6.8"/>
		<rect x="848.5" y="81.6" class="st8" width="9.6" height="6.8"/>
		<rect x="857" y="88.4" class="st8" width="9.6" height="6.8"/>
		<rect x="866.6" y="93.6" class="st8" width="9.6" height="6.8"/>
		<rect x="876.2" y="97" class="st8" width="9.6" height="6.8"/>
		<rect x="885.8" y="100.4" class="st8" width="15.4" height="6.8"/>
		<rect x="901" y="103.8" class="st8" width="24.5" height="6.8"/>
		<rect x="925.5" y="108" class="st8" width="24.5" height="6.8"/>
		<rect x="949.9" y="111.5" class="st8" width="24.5" height="6.8"/>
		<rect x="974.4" y="114.7" class="st8" width="24.5" height="6.8"/>
		<rect x="999" y="118.1" class="st8" width="44.1" height="6.8"/>
		<rect x="1043" y="122.1" class="st8" width="44.1" height="6.8"/>
		<rect x="1086.2" y="125.5" class="st8" width="44.1" height="6.8"/>
		<rect x="1130.3" y="128.3" class="st8" width="100.4" height="6.8"/>
	</g>
	<g>
		
			<rect x="836.5" y="55.1" transform="matrix(0.9939 -0.1101 0.1101 0.9939 -2.4703 92.8755)" class="st6" width="6.8" height="27.5"/>
		
			<rect x="836.7" y="75.1" transform="matrix(0.9939 -0.1101 0.1101 0.9939 -5.6695 93.0794)" class="st6" width="7" height="45.6"/>
		
			<rect x="842.7" y="110.7" transform="matrix(0.9939 -0.1101 0.1101 0.9939 -8.5596 93.8925)" class="st6" width="6.8" height="27.5"/>
		<g>
			
				<rect x="834.8" y="49.8" transform="matrix(0.9939 -0.1101 0.1101 0.9939 -0.7057 93.5166)" class="st6" width="23.5" height="6.8"/>
			
				<rect x="854.8" y="43" transform="matrix(0.9939 -0.1101 0.1101 0.9939 0.1762 96.0414)" class="st6" width="30.2" height="6.8"/>
			
				<rect x="881.3" y="36" transform="matrix(0.9939 -0.1101 0.1101 0.9939 1.1167 99.0835)" class="st6" width="33.2" height="6.8"/>
			
				<rect x="910.7" y="29.4" transform="matrix(0.9939 -0.1101 0.1101 0.9939 2.0282 102.2735)" class="st6" width="33.2" height="6.8"/>
			
				<rect x="940.1" y="21.6" transform="matrix(0.9939 -0.1101 0.1101 0.9939 3.0741 105.6176)" class="st6" width="35.9" height="6.8"/>
			
				<rect x="972.4" y="14.1" transform="matrix(0.9939 -0.1101 0.1101 0.9939 4.093 109.1269)" class="st6" width="35.9" height="6.8"/>
		</g>
		<g>
			
				<rect x="844.3" y="135.5" transform="matrix(0.9939 -0.1101 0.1101 0.9939 -10.0909 95.0836)" class="st6" width="23.5" height="6.8"/>
			
				<rect x="865.2" y="137" transform="matrix(0.9939 -0.1101 0.1101 0.9939 -10.1045 97.7577)" class="st6" width="30.2" height="6.8"/>
			
				<rect x="892.6" y="137.7" transform="matrix(0.9939 -0.1101 0.1101 0.9939 -10.0054 100.9414)" class="st6" width="33.2" height="6.8"/>
			
				<rect x="922.7" y="137.8" transform="matrix(0.9939 -0.1101 0.1101 0.9939 -9.8315 104.2545)" class="st6" width="33.2" height="6.8"/>
			
				<rect x="953.1" y="138.7" transform="matrix(0.9939 -0.1101 0.1101 0.9939 -9.7342 107.7557)" class="st6" width="35.9" height="6.8"/>
			
				<rect x="986.3" y="138.9" transform="matrix(0.9939 -0.1101 0.1101 0.9939 -9.5578 111.4066)" class="st6" width="35.9" height="6.8"/>
		</g>
		
			<rect x="1009" y="11.8" transform="matrix(0.9939 -0.1101 0.1101 0.9939 2.6938 111.6373)" class="st6" width="6.8" height="39.3"/>
		<polygon class="st6" points="1017.4,103.2 1024.1,102.5 1028.7,142.6 1022,143.3 		"/>
		
			<rect x="1009.8" y="47.5" transform="matrix(0.9939 -0.1101 0.1101 0.9939 -2.1712 111.9897)" class="st6" width="6.8" height="56.2"/>
		<g>
			
				<rect x="852.3" y="96.8" transform="matrix(0.995 -9.941170e-02 9.941170e-02 0.995 -6.3973 85.5963)" class="st9" width="6.7" height="20.4"/>
			
				<rect x="860.3" y="109.2" transform="matrix(0.995 -9.941170e-02 9.941170e-02 0.995 -7.5905 86.4715)" class="st9" width="7.2" height="20.4"/>
			
				<rect x="868.2" y="115.6" transform="matrix(-9.941170e-02 -0.995 0.995 -9.941170e-02 832.7898 1005.2499)" class="st9" width="6.2" height="20.4"/>
		</g>
	</g>
	<rect x="1106.2" y="135.5" class="st10" width="4.2" height="4.2"/>
	<rect x="872.1" y="107.6" class="st10" width="5.6" height="5.6"/>
	<rect x="845.4" y="85.6" class="st10" width="5.6" height="5.6"/>
	<rect x="999" y="128.3" class="st10" width="5.6" height="5.6"/>
	<rect x="1148.2" y="137.2" class="st10" width="2.5" height="2.5"/>
	<rect x="904" y="115.3" class="st10" width="2.5" height="2.5"/>
	<rect x="913.5" y="124.2" class="st10" width="2.5" height="2.5"/>
	<rect x="1041.8" y="137.2" class="st10" width="2.5" height="2.5"/>
	<rect x="883.1" y="130.8" class="st10" width="2.5" height="2.5"/>
	<rect x="979.2" y="128.1" class="st10" width="2.5" height="2.5"/>
	<rect x="1076.2" y="134.1" class="st10" width="2.5" height="2.5"/>
	<rect x="942.1" y="123.4" class="st10" width="4.1" height="4.1"/>
	<rect x="962.1" y="122.4" class="st10" width="4.1" height="4.1"/>
	<rect x="962.1" y="130.9" class="st10" width="4.1" height="4.1"/>
	<rect x="895.9" y="127.3" class="st10" width="4.1" height="4.1"/>
	<rect x="903" y="121.9" class="st10" width="1.9" height="1.9"/>
	<rect x="1033.2" y="130.1" class="st10" width="1.9" height="1.9"/>
	<rect x="1085.3" y="135.7" class="st10" width="1.9" height="1.9"/>
	<rect x="927.3" y="120" class="st10" width="1.9" height="1.9"/>
	<rect x="1055" y="132.9" class="st10" width="1.9" height="1.9"/>
	<rect x="888.3" y="116.6" class="st10" width="1.9" height="1.9"/>
	<polygon class="st7" points="931.4,119.8 931.4,103.1 925.1,103.1 925.1,89.4 918.4,89.4 918.4,108.5 924.7,108.5 924.7,122.3 
		931.3,122.3 931.3,138.9 938,138.9 938,119.8 	"/>
	<polygon class="st7" points="965.4,120.5 965.4,103.9 959.1,103.9 959.1,90.2 952.3,90.2 952.3,109.3 958.6,109.3 958.6,123 
		965.2,123 965.2,139.6 972,139.6 972,120.5 	"/>
</g>
<rect x="1012.4" y="11.4" transform="matrix(0.995 -9.941170e-02 9.941170e-02 0.995 3.6454 101.0515)" class="st2" width="6.7" height="5.1"/>
<g>
	<path class="st6" d="M42.8,41.7H16.4V25h66.1v16.7H56V142H42.8V41.7z"/>
	<path class="st6" d="M115.5,91.8h-6.6V142H95.7V25h52.9v8.4h6.6v8.4h6.6v33.4h-6.6v8.4h-6.6v8.4h-13.2v8.4h6.6v8.4h6.6v8.4h6.6v8.4
		h6.6V142h-13.2v-8.4h-6.6v-8.4h-6.6v-8.4h-6.6v-8.4h-6.6v-8.4h-6.6V91.8z M108.9,41.7v33.4h33v-8.4h6.6V50h-6.6v-8.4H108.9z"/>
	<path class="st6" d="M188.2,142H175V58.4h6.6V50h6.6v-8.4h6.6v-8.4h6.6V25h13.2v8.4h6.6v8.4h6.6V50h6.6v8.4h6.6V142h-13.2v-33.4
		h-39.6V142z M188.2,91.8h39.6V66.8h-6.6v-8.4h-6.6V50h-13.2v8.4h-6.6v8.4h-6.6V91.8z"/>
	<path class="st6" d="M260.9,125.2h-6.6V41.7h6.6v-8.4h6.6V25h39.6v8.4h6.6v8.4h6.6v75.2h-6.6v8.4h6.6V142h-13.2v-8.4h-13.2v8.4
		h-26.4v-8.4h-6.6V125.2z M267.5,50v66.9h6.6v8.4h19.8v-8.4h-6.6v-8.4h-6.6V91.8h13.2v8.4h6.6v8.4h6.6V50h-6.6v-8.4h-26.4V50H267.5z
		"/>
	<path class="st6" d="M340.2,125.2h-6.6V25h13.2v91.9h6.6v8.4h26.4v-8.4h6.6V25h13.2v100.3H393v8.4h-6.6v8.4h-39.6v-8.4h-6.6V125.2z
		"/>
	<path class="st6" d="M478.9,25v16.7h-52.9v33.4h39.6v16.7h-39.6v33.4h52.9V142h-66.1V25H478.9z"/>
	<path class="st6" d="M505.4,75.1V142h-13.2V25h13.2V50h6.6v8.4h6.6v8.4h6.6v8.4h6.6v8.4h6.6v8.4h6.6V25h13.2v117H545v-25.1h-6.6
		v-8.4h-6.6v-8.4h-6.6v-8.4h-6.6v-8.4H512v-8.4H505.4z"/>
	<path class="st6" d="M584.7,142h-13.2V58.4h6.6V50h6.6v-8.4h6.6v-8.4h6.6V25h13.2v8.4h6.6v8.4h6.6V50h6.6v8.4h6.6V142h-13.2v-33.4
		h-39.6V142z M584.7,91.8h39.6V66.8h-6.6v-8.4h-6.6V50h-13.2v8.4h-6.6v8.4h-6.6V91.8z"/>
	<path class="st6" d="M670.6,91.8h-6.6V142h-13.2V25h52.9v8.4h6.6v8.4h6.6v33.4h-6.6v8.4h-6.6v8.4h-13.2v8.4h6.6v8.4h6.6v8.4h6.6
		v8.4h6.6V142h-13.2v-8.4H697v-8.4h-6.6v-8.4h-6.6v-8.4h-6.6v-8.4h-6.6V91.8z M663.9,41.7v33.4h33v-8.4h6.6V50H697v-8.4H663.9z"/>
	<path class="st6" d="M730,142V25h52.9v8.4h6.6v8.4h6.6v83.6h-6.6v8.4h-6.6v8.4H730z M743.2,41.7v83.6h33v-8.4h6.6V50h-6.6v-8.4
		H743.2z"/>
</g>
</svg>
