<?xml version="1.0" encoding="UTF-8"?>
<svg id="a" data-name="Calque 1" xmlns="http://www.w3.org/2000/svg" viewBox="0 0 178.13 178.13">
  <defs>
    <style>
      .b {
        fill: none;
      }

      .b, .c {
        stroke: #400101;
        stroke-miterlimit: 10;
        stroke-width: 8px;
      }

      .d {
        fill: #fff;
      }

      .e {
        opacity: .15;
      }

      .c {
        fill: #2198a6;
      }
    </style>
  </defs>
  <rect class="c" x="4" y="4" width="170.13" height="170.13" rx="38.85" ry="38.85"/>
  <polygon class="d" points="137.4 83.67 96.29 83.67 96.29 42.56 83.89 42.56 83.89 83.67 42.78 83.67 42.78 96.07 83.89 96.07 83.89 137.18 96.29 137.18 96.29 96.07 137.4 96.07 137.4 83.67"/>
  <g class="e">
    <path class="d" d="M151.12,9.36c5.99,7.75,9.56,17.47,9.56,28.03v78.33c0,25.35-20.55,45.9-45.9,45.9H36.45c-7.78,0-15.11-1.94-21.53-5.36,8.39,10.87,21.54,17.87,36.34,17.87h78.33c25.35,0,45.9-20.55,45.9-45.9V49.9c0-17.57-9.87-32.82-24.37-40.54Z"/>
  </g>
  <g>
    <rect class="d" x="18.83" y="33.8" width="10.21" height="10.21"/>
    <rect class="d" x="25.13" y="24.27" width="10.21" height="10.21"/>
    <rect class="d" x="35.17" y="17.46" width="10.21" height="10.21"/>
  </g>
  <rect class="b" x="4" y="4" width="170.13" height="170.13" rx="38.85" ry="38.85"/>
</svg>