<?xml version="1.0" encoding="UTF-8"?>
<svg id="a" data-name="Calque 1" xmlns="http://www.w3.org/2000/svg" viewBox="0 0 178.13 178.13">
  <defs>
    <style>
      .b {
        fill: #f25430;
      }

      .b, .c {
        stroke: #400101;
        stroke-miterlimit: 10;
        stroke-width: 8px;
      }

      .c {
        fill: none;
      }

      .d {
        fill: #fff;
      }

      .e {
        opacity: .15;
      }
    </style>
  </defs>
  <rect class="b" x="4" y="4" width="170.13" height="170.13" rx="40.25" ry="40.25"/>
  <g class="e">
    <path class="d" d="M151.8,9.36c5.99,7.75,9.56,17.47,9.56,28.03v78.33c0,25.35-20.55,45.9-45.9,45.9H37.13c-7.78,0-15.11-1.94-21.53-5.36,8.39,10.87,21.54,17.87,36.34,17.87h78.33c25.35,0,45.9-20.55,45.9-45.9V49.9c0-17.57-9.87-32.82-24.37-40.54Z"/>
  </g>
  <g>
    <polygon class="d" points="127.08 142.8 53.06 142.8 53.06 62.32 46.57 62.32 46.57 143.92 52.95 143.92 52.95 149.86 127.46 149.86 127.46 143.92 133.57 143.92 133.57 62.32 127.08 62.32 127.08 142.8"/>
    <path class="d" d="M142.86,51.41h-5.37v-5.7h-29.46v-5.23h-5.22v-5.68h-4.67v-5.25h-15.51v5.25h-5.02v5.68h-5.22v5.23h-29.46v5.7h-5.27v6.01h5.27v4.78h94.56v-4.78h5.37v-6.01ZM137.34,51.49v4.93H43.18v-4.93h94.16ZM77.91,40.81h5.22v-5.25h14.15v5.25h5.22v4.9h-24.59v-4.9Z"/>
    <rect class="d" x="67.45" y="72.54" width="5.52" height="60.59"/>
    <rect class="d" x="87.27" y="72.54" width="5.52" height="60.59"/>
    <rect class="d" x="107.1" y="72.54" width="5.52" height="60.59"/>
  </g>
  <rect class="d" x="17.23" y="32.8" width="10.21" height="10.21"/>
  <rect class="d" x="23.53" y="23.27" width="10.21" height="10.21"/>
  <rect class="d" x="33.57" y="16.46" width="10.21" height="10.21"/>
  <rect class="c" x="4" y="4" width="170.13" height="170.13" rx="40.25" ry="40.25"/>
</svg>